# xmcd
#
# Track frame offsets: 
#        150
#        18182
#        33125
#        55890
#
# Disc length: 1076 seconds
#
# Revision: 2
# Processed by: cddbd v1.5.2PL0 Copyright (c) Steve Scherf et al.
# Submitted via: ExactAudioCopy v0.95b4
#
DISCID=23043204
DTITLE=DJ Sammy Feat.Carisma - You're My Angel
DYEAR=1995
DGENRE=Electronic
TTITLE0=You're My Angel (Original Radio Mix)
TTITLE1=You're My Angel (Guitar Dream Mix)
TTITLE2=You're My Angel (Ibiza House Mix)
TTITLE3=Wait 
EXTD=YEAR: 2005
EXTT0=
EXTT1=
EXTT2=
EXTT3=
PLAYORDER=
